<svg xmlns="http://www.w3.org/2000/svg" viewBox="0 0 35.93 32"><path fill="#61DAFB" d="M35.93 16c0-2.375-2.975-4.625-7.537-6.021 1.052-4.65.587-8.35-1.475-9.533a3.197 3.197 0 0 0-1.633-.412V1.67c.328 0 .593.064.815.187.995.571 1.426 2.742.99 5.534-.104.667-.275 1.37-.484 2.087a31.789 31.789 0 0 0-4.165-.717 32.014 32.014 0 0 0-2.728-3.279c2.099-1.95 4.07-3.018 5.41-3.018V.792c-1.772 0-4.092 1.262-6.438 3.45C16.34 2.066 14.02.817 12.247.817V2.49c1.334 0 3.31 1.063 5.41 3.001a31.064 31.064 0 0 0-2.71 3.273 30.628 30.628 0 0 0-4.171.722 19.708 19.708 0 0 1-.495-2.062c-.443-2.792-.018-4.963.97-5.54.218-.13.495-.187.83-.187V.025a3.25 3.25 0 0 0-1.65.412C8.378 1.62 7.92 5.313 8.978 9.95 4.43 11.353 1.473 13.595 1.473 15.97c0 2.376 2.975 4.625 7.537 6.022-1.052 4.65-.587 8.35 1.475 9.533.477.276 1.034.412 1.64.412 1.771 0 4.091-1.263 6.438-3.45 2.346 2.176 4.666 3.425 6.438 3.425a3.25 3.25 0 0 0 1.65-.412c2.052-1.183 2.51-4.876 1.452-9.514 4.532-1.396 7.49-3.65 7.49-6.026Zm-9.524-4.876a30.69 30.69 0 0 1-.913 2.687 31.876 31.876 0 0 0-1.798-3.124 33.1 33.1 0 0 1 2.71.437Zm-3.221 7.494a37.992 37.992 0 0 1-1.61 2.561 35.495 35.495 0 0 1-6.013 0 35.495 35.495 0 0 1-3.005-5.184 36.42 36.42 0 0 1 1.402-2.587 35.495 35.495 0 0 1 6.013 0 36.41 36.41 0 0 1 3.006 5.184c-.255.595-.532 1.18-.793 1.766l-.65.025v-.005c.215-.595.443-1.182.65-1.76Zm-2.27 1.176a37.717 37.717 0 0 1-1.518 1.92 32.55 32.55 0 0 1-2.31 0 30.65 30.65 0 0 1-1.523-1.92c.481-.83.964-1.671 1.518-2.51a30.658 30.658 0 0 1 2.310 0 32.62 32.62 0 0 1 1.523 1.92Z"/></svg>
